Coordinates
version=1
nRows=9
nColumns=42
inDegrees=yes

Units are S.I. units (second, meters, Newtons, ...)
If the header above contains a line with 'inDegrees', this indicates whether rotational values are in degrees (yes) or radians (no).

endheader
time	pelvis_tilt	pelvis_list	pelvis_rotation	pelvis_tx	pelvis_ty	pelvis_tz	hip_flexion_r	hip_adduction_r	hip_rotation_r	knee_angle_r	knee_adduction_r	knee_angle_r_beta	ankle_angle_r	subtalar_angle_r	mtp_angle_r	hip_flexion_l	hip_adduction_l	hip_rotation_l	knee_angle_l	knee_adduction_l	knee_angle_l_beta	ankle_angle_l	subtalar_angle_l	mtp_angle_l	lumbar_extension	lumbar_bending	lumbar_rotation	arm_flex_r	arm_add_r	arm_rot_r	elbow_flex_r	pro_sup_r	wrist_flex_r	wrist_dev_r	arm_flex_l	arm_add_l	arm_rot_l	elbow_flex_l	pro_sup_l	wrist_flex_l	wrist_dev_l
      1.65000000	     14.31244569	      3.41312191	      6.71969913	     -0.40677504	      0.88083899	     -0.03242707	     12.01951408	     -3.06477993	    -16.61674781	     33.59064281	     -1.20197716	      0.58626731	     10.71472740	     -7.96972396	     -7.54834392	    -20.85695805	     -3.67755553	    -18.47167738	     44.06497541	     -8.44428941	      0.76907891	      8.77753762	     26.85430366	     -7.54834392	    -31.67844700	     -1.01550207	     -6.55846958	     -4.13347733	     -6.24082035	    -44.37569106	     21.11730277	     90.00000001	      0.00000000	      0.00000000	     10.51575941	     -7.57159684	    -31.56790683	     34.02485498	     90.00000001	      0.00000000	      0.00000000
      1.66000000	     14.49950448	      3.27498167	      6.51281654	     -0.39722664	      0.88200190	     -0.03089654	     11.24417828	     -2.66899732	    -17.13197317	     33.71398133	     -1.56384547	      0.58841998	     11.57094606	     -7.09916606	     -7.54578744	    -20.20222538	     -3.72070491	    -17.71666451	     46.11537936	     -8.53312986	      0.80486521	      7.59731112	     23.79078635	     -7.54578744	    -31.83366562	     -0.88716889	     -6.32245533	     -3.78547854	     -6.46699661	    -43.51872352	     21.41358791	     90.00000001	      0.00000000	      0.00000000	     10.04486581	     -7.34002211	    -32.06102440	     33.80581531	     90.00000001	      0.00000000	      0.00000000
      1.67000000	     14.63595189	      3.04360395	      6.26224866	     -0.38801355	      0.88308355	     -0.02907970	     10.49160083	     -2.12546385	    -17.51478128	     33.67611910	     -1.86946934	      0.58775916	     12.51925553	     -6.47804594	     -7.54440925	    -19.31140715	     -3.84004676	    -17.41460370	     48.24911978	     -8.93863069	      0.84210600	      6.63253711	     21.56376527	     -7.54440925	    -31.98357226	     -0.72489064	     -5.98698718	     -3.29484245	     -6.63826742	    -42.96366771	     21.74400678	     90.00000001	      0.00000000	      0.00000000	      9.56700720	     -7.17894792	    -32.22832207	     33.69988513	     90.00000001	      0.00000000	      0.00000000
      1.68000000	     14.81941901	      2.94433072	      6.07189158	     -0.37898892	      0.88432612	     -0.02751887	      9.67943051	     -1.78623724	    -18.38143435	     33.63373199	     -2.38730767	      0.58701936	     13.37174132	     -5.18586489	     -7.54233028	    -18.48821751	     -3.79087236	    -16.34753867	     50.29889649	     -8.72638034	      0.87788135	      5.99783854	     17.90721695	     -7.54233028	    -32.20943610	     -0.65543333	     -5.75159385	     -2.84260877	     -6.83867616	    -41.88888689	     22.11758265	     90.00000001	      0.00000000	      0.00000000	      9.20419432	     -6.99438875	    -32.61551582	     33.46615356	     90.00000001	      0.00000000	      0.00000000
      1.69000000	     14.98849041	      2.83670427	      5.89529657	     -0.37003023	      0.88553114	     -0.02597394	      8.82528941	     -1.44299278	    -19.08085190	     33.47956969	     -2.78200553	      0.58432872	     14.31497142	     -4.08884421	     -7.54056455	    -17.54312074	     -3.77227225	    -15.57770691	     52.33486058	     -8.64875037	      0.91341563	      5.65705636	     14.64494762	     -7.54056455	    -32.41163093	     -0.57785416	     -5.52144782	     -2.38995961	     -7.02033617	    -40.83369721	     22.53647999	     90.00000001	      0.00000000	      0.00000000	      8.80353321	     -6.82827712	    -32.90172792	     33.25826352	     90.00000001	      0.00000000	      0.00000000
      1.70000000	     15.35315130	      2.99043596	      5.56909601	     -0.36129049	      0.88713856	     -0.02432411	      7.75006982	     -1.42694188	    -19.25881207	     33.43188244	     -2.86295540	      0.58349642	     14.70759371	     -3.84610010	     -7.54002349	    -16.81579421	     -3.39041476	    -15.51825619	     54.00634948	     -9.12360869	      0.94258862	      6.12956181	     13.48308967	     -7.54002349	    -32.88376354	     -0.82202847	     -5.26729351	     -1.78175787	     -7.11613886	    -40.48801498	     22.92667186	     90.00000001	      0.00000000	      0.00000000	      8.46342244	     -6.74422735	    -32.92320082	     33.12899550	     90.00000001	      0.00000000	      0.00000000
      1.71000000	     15.42028456	      2.62565093	      5.64105392	     -0.35279471	      0.88819760	     -0.02308223	      6.89152887	     -0.78557085	    -19.93769322	     32.95219005	     -3.16036870	      0.57512421	     15.77156126	     -2.62991010	     -7.53845398	    -15.53601605	     -3.71155876	    -14.12161137	     56.07232882	     -8.47406960	      0.97864676	      6.10631772	      8.45636019	     -7.53845398	    -32.98085136	     -0.38282130	     -5.11686801	     -1.30420557	     -7.34832904	    -38.88907745	     23.44549630	     90.00000001	      0.00000000	      0.00000000	      8.13039630	     -6.54440997	    -33.22401742	     32.81742281	     90.00000001	      0.00000000	      0.00000000
      1.72000000	     15.74132346	      2.86393851	      5.56534393	     -0.34446421	      0.88988907	     -0.02205438	      5.79618190	     -0.99732342	    -20.45250439	     32.81864192	     -3.16555981	      0.57279336	     16.41709619	     -1.70569536	     -7.53566145	    -14.64007150	     -3.16230023	    -12.86090793	     57.61126227	     -8.09096989	      1.00550621	      5.99827658	      4.30223651	     -7.53566145	    -33.44205114	     -0.57576266	     -5.13980798	     -0.95090326	     -7.57125349	    -36.46317443	     24.17809520	     90.00000001	      0.00000000	      0.00000000	      7.88303888	     -6.43683560	    -33.59803353	     32.58083211	     90.00000001	      0.00000000	      0.00000000
      1.73000000	     16.01053961	      2.76424143	      5.45601882	     -0.33621673	      0.89134807	     -0.02069378	      4.68827199	     -0.67868675	    -20.33840618	     32.39899461	     -3.01549627	      0.56546913	     16.97309198	     -1.49841835	     -7.53475863	    -13.56207458	     -3.12724411	    -12.45915689	     59.08797554	     -8.11668170	      1.03127972	      7.03239149	      2.22249652	     -7.53475863	    -33.80915571	     -0.48251307	     -4.92706498	     -0.28349209	     -7.72877372	    -35.72638266	     24.64453700	     90.00000001	      0.00000000	      0.00000000	      7.60902036	     -6.33421242	    -33.60041933	     32.36432493	     90.00000001	      0.00000000	      0.00000000
